<svg xmlns="http://www.w3.org/2000/svg"
     viewBox="0 0 192 192"
     width="192" height="192">
  <!-- Background circle -->
  <circle cx="96" cy="96" r="96" fill="#0A0A0A"/>
  <!-- Shield shape -->
  <path d="M96 24 L152 48 L152 96
           C152 128 128 152 96 168
           C64 152 40 128 40 96
           L40 48 Z"
        fill="#FF2D2D" opacity="0.15"
        stroke="#FF2D2D" stroke-width="3"/>
  <!-- Shield inner fill -->
  <path d="M96 36 L144 56 L144 96
           C144 122 124 144 96 158
           C68 144 48 122 48 96
           L48 56 Z"
        fill="#141414"/>
  <!-- SOS text -->
  <text x="96" y="108"
        font-family="Inter, sans-serif"
        font-size="32" font-weight="900"
        fill="#FF2D2D"
        text-anchor="middle">SOS</text>
  <!-- Small shield outline lines -->
  <path d="M96 36 L144 56 L144 96
           C144 122 124 144 96 158
           C68 144 48 122 48 96
           L48 56 Z"
        fill="none"
        stroke="#FF2D2D" stroke-width="2"
        opacity="0.6"/>
</svg>
